HIERARCHY
ROOT Hips
{
	OFFSET -0.001795 -0.223333 0.028219
	CHANNELS 6 Xposition Yposition Zposition Zrotation Yrotation Xrotation 
	JOINT LeftUpLeg
	{
		OFFSET 0.069520 -0.091406 -0.006815
		CHANNELS 3 Zrotation Yrotation Xrotation
		JOINT LeftLeg
		{
			OFFSET 0.034277 -0.375199 -0.004496
			CHANNELS 3 Zrotation Yrotation Xrotation
			JOINT LeftFoot
			{
				OFFSET -0.013596 -0.397961 -0.043693
				CHANNELS 3 Zrotation Yrotation Xrotation
				JOINT LeftToe
				{
					OFFSET 0.026358 -0.055791 0.119288
					CHANNELS 3 Zrotation Yrotation Xrotation
					End Site
					{
						OFFSET 0.000000 0.000000 0.000000
					}
				}
			}
		}
	}
	JOINT RightUpLeg
	{
		OFFSET -0.067670 -0.090522 -0.004320
		CHANNELS 3 Zrotation Yrotation Xrotation
		JOINT RightLeg
		{
			OFFSET -0.038290 -0.382569 -0.008850
			CHANNELS 3 Zrotation Yrotation Xrotation
			JOINT RightFoot
			{
				OFFSET 0.015774 -0.398415 -0.042312
				CHANNELS 3 Zrotation Yrotation Xrotation
				JOINT RightToe
				{
					OFFSET -0.025372 -0.048144 0.123348
					CHANNELS 3 Zrotation Yrotation Xrotation
					End Site
					{
						OFFSET 0.000000 0.000000 0.000000
					}
				}
			}
		}
	}
	JOINT Spine
	{
		OFFSET -0.002533 0.108963 -0.026696
		CHANNELS 3 Zrotation Yrotation Xrotation
		JOINT Spine1
		{
			OFFSET 0.005487 0.135180 0.001092
			CHANNELS 3 Zrotation Yrotation Xrotation
			JOINT Spine2
			{
				OFFSET 0.001457 0.052922 0.025425
				CHANNELS 3 Zrotation Yrotation Xrotation
				JOINT Neck
				{
					OFFSET -0.002778 0.213870 -0.042857
					CHANNELS 3 Zrotation Yrotation Xrotation
					JOINT Head
					{
						OFFSET 0.005152 0.064970 0.051349
						CHANNELS 3 Zrotation Yrotation Xrotation
						End Site
						{
							OFFSET 0.000000 0.000000 0.000000
						}
					}
				}
				JOINT LeftShoulder
				{
					OFFSET 0.078845 0.121749 -0.034090
					CHANNELS 3 Zrotation Yrotation Xrotation
					JOINT LeftArm
					{
						OFFSET 0.090977 0.030469 -0.008868
						CHANNELS 3 Zrotation Yrotation Xrotation
						JOINT LeftForeArm
						{
							OFFSET 0.259612 -0.012772 -0.027456
							CHANNELS 3 Zrotation Yrotation Xrotation
							JOINT LeftHand
							{
								OFFSET 0.249234 0.008986 -0.001171
								CHANNELS 3 Zrotation Yrotation Xrotation
								End Site
								{
									OFFSET 0.000000 0.000000 0.000000
								}
							}
						}
					}
				}
				JOINT RightShoulder
				{
					OFFSET -0.081759 0.118833 -0.038615
					CHANNELS 3 Zrotation Yrotation Xrotation
					JOINT RightArm
					{
						OFFSET -0.096012 0.032551 -0.009143
						CHANNELS 3 Zrotation Yrotation Xrotation
						JOINT RightForeArm
						{
							OFFSET -0.253742 -0.013329 -0.021401
							CHANNELS 3 Zrotation Yrotation Xrotation
							JOINT RightHand
							{
								OFFSET -0.255298 0.007772 -0.005559
								CHANNELS 3 Zrotation Yrotation Xrotation
								End Site
								{
									OFFSET 0.000000 0.000000 0.000000
								}
							}
						}
					}
				}
			}
		}
	}
}
MOTION
Frames: 13
Frame Time: 0.050000
-0.011857 0.931132 0.004187 -1.866271 -5.114424 -0.945923 5.675005 -0.071849 -1.978067 -6.595442 1.107217 9.225882 6.896178 14.582781 1.078910 0.000000 0.000000 0.000000 4.681505 -0.353668 1.656956 2.443214 -0.121382 4.970842 -3.851362 -9.288323 -0.559156 0.000000 0.000000 0.000000 5.595935 0.481571 -5.270213 -0.308419 0.191338 -4.952597 -0.956274 7.938308 12.194456 2.316448 0.125286 -14.524250 0.000000 0.000000 0.000000 -3.576641 -14.670233 4.856873 1.684669 -44.280451 -3.817512 124.289777 -29.743166 -51.645610 0.000000 0.000000 0.000000 23.870230 8.209657 4.687758 56.688949 -0.758950 -6.988182 1.184921 30.653050 1.789437 0.000000 0.000000 0.000000 
-0.011974 0.931145 0.004177 -2.125705 -5.290253 -0.828569 6.013450 -0.062438 -1.957252 -6.652514 1.122446 9.183428 7.253003 15.310517 1.292632 0.000000 0.000000 0.000000 5.031319 -0.344968 1.479528 2.504767 -0.130452 4.882679 -3.974107 -9.614563 -0.460231 0.000000 0.000000 0.000000 5.869898 0.465345 -4.985488 -0.268879 0.175477 -5.246448 -0.868203 8.229107 12.035768 2.271933 0.241709 -15.115367 0.000000 0.000000 0.000000 -3.806944 -14.405440 4.742978 2.668602 -43.470362 -4.027992 124.117507 -29.525292 -51.272539 0.000000 0.000000 0.000000 24.091059 8.040989 4.654470 56.461811 -0.874472 -7.019496 0.896490 30.748890 1.730297 0.000000 0.000000 0.000000 
-0.011971 0.931249 0.004087 -2.105699 -5.039523 -0.964450 6.050908 -0.059799 -1.870483 -6.651153 1.118073 9.292098 7.532571 15.856730 1.336439 0.000000 0.000000 0.000000 5.184062 -0.364234 1.596848 2.373083 -0.113077 4.958393 -4.116102 -9.939367 -0.550848 0.000000 0.000000 0.000000 5.798365 0.441701 -4.770322 -0.269876 0.178430 -5.134742 -0.788932 8.082436 11.948883 2.177530 0.301313 -15.119745 0.000000 0.000000 0.000000 -3.806885 -14.445224 4.756391 3.493589 -42.423730 -4.131380 124.367861 -29.009351 -50.742233 0.000000 0.000000 0.000000 24.274779 8.174195 4.743516 56.058211 -0.797632 -6.940478 0.421322 30.663884 1.597319 0.000000 0.000000 0.000000 
-0.012000 0.931463 0.003958 -2.056403 -4.889562 -1.094037 6.001770 -0.056403 -1.752379 -6.553085 1.084997 9.076577 7.491897 15.789648 1.701942 0.000000 0.000000 0.000000 5.284433 -0.404530 1.872488 2.436966 -0.129951 4.698246 -4.365813 -10.702232 -0.068517 0.000000 0.000000 0.000000 5.525177 0.409886 -4.543519 -0.135177 0.122844 -5.149829 -0.746529 8.078308 12.048055 2.115906 0.436407 -15.922565 0.000000 0.000000 0.000000 -3.709704 -14.576444 4.798823 4.370668 -41.315664 -4.240375 123.732114 -28.597565 -49.657162 0.000000 0.000000 0.000000 24.873762 8.304132 4.903496 55.549194 -0.545414 -6.815372 -0.475908 30.916892 1.391815 0.000000 0.000000 0.000000 
-0.012110 0.931627 0.003805 -2.161111 -4.872803 -0.996900 6.210631 -0.059077 -1.891763 -6.454476 1.057255 8.890956 7.517435 15.851755 2.002764 0.000000 0.000000 0.000000 5.548362 -0.423423 1.920944 2.347652 -0.129097 4.249919 -4.390100 -10.892736 0.360978 0.000000 0.000000 0.000000 5.496883 0.412761 -4.602882 -0.193520 0.148017 -5.142821 -0.511437 7.993453 12.016113 1.799473 0.644900 -16.124321 0.000000 0.000000 0.000000 -3.915676 -14.542001 4.796051 4.494823 -40.813595 -4.190492 124.057123 -28.944082 -50.425726 0.000000 0.000000 0.000000 25.062573 8.490663 4.993061 55.361699 -0.405032 -6.727038 -0.839523 30.876674 1.286848 0.000000 0.000000 0.000000 
-0.012270 0.931916 0.003607 -2.188733 -4.417661 -1.104657 6.411719 -0.055813 -1.767428 -6.357092 1.016990 8.706609 7.455835 15.744733 2.473930 0.000000 0.000000 0.000000 5.717298 -0.468857 2.209965 2.466400 -0.162451 3.659392 -4.713123 -11.876062 1.110078 0.000000 0.000000 0.000000 5.223913 0.417993 -4.786136 -0.017114 0.077783 -5.030925 -0.538558 7.851903 12.114836 1.794655 0.723637 -16.744662 0.000000 0.000000 0.000000 -3.888718 -14.876357 4.909481 4.399074 -40.347630 -4.107961 123.928546 -29.827390 -51.751742 0.000000 0.000000 0.000000 25.514597 8.761920 5.251185 55.303585 0.046715 -6.556109 -1.530496 30.454347 1.095534 0.000000 0.000000 0.000000 
-0.012497 0.931791 0.003465 -2.223617 -3.990650 -1.227675 6.604564 -0.059008 -1.825473 -6.412062 1.019793 8.851398 7.544748 15.902056 2.439639 0.000000 0.000000 0.000000 5.763504 -0.501186 2.441380 2.594181 -0.187822 3.407201 -4.715664 -11.943343 1.287797 0.000000 0.000000 0.000000 4.991764 0.407282 -4.781403 0.008373 0.069883 -4.806894 -0.465587 7.642427 12.002874 1.570832 0.867801 -16.782792 0.000000 0.000000 0.000000 -3.935206 -14.991833 4.947861 3.993494 -40.076874 -3.955016 124.259644 -30.522235 -53.126275 0.000000 0.000000 0.000000 25.939877 8.906240 5.386167 54.997654 0.191659 -6.470595 -1.908315 30.022769 0.975847 0.000000 0.000000 0.000000 
-0.012711 0.931779 0.003326 -2.300111 -3.472584 -1.154799 6.874107 -0.075922 -2.209591 -6.389173 1.009638 9.180915 7.324904 15.468395 2.433397 0.000000 0.000000 0.000000 5.962767 -0.481347 2.254321 2.591476 -0.196966 3.144563 -4.781735 -12.178649 1.550493 0.000000 0.000000 0.000000 4.551311 0.407709 -5.042855 0.380958 -0.083391 -4.783176 -0.427362 7.399633 12.053512 1.995419 0.675971 -17.478485 0.000000 0.000000 0.000000 -4.091434 -14.991973 4.944822 3.681028 -40.038708 -3.868410 124.620956 -31.347448 -54.728124 0.000000 0.000000 0.000000 26.461167 8.835241 5.406243 54.540943 0.357229 -6.378236 -2.168066 29.887955 0.906569 0.000000 0.000000 0.000000 
-0.013066 0.931564 0.003203 -2.443529 -3.262996 -1.118236 7.238889 -0.077747 -2.385533 -6.336235 1.002135 9.519101 7.326786 15.457436 2.321578 0.000000 0.000000 0.000000 6.157831 -0.479519 2.188829 2.715642 -0.219002 2.896640 -4.902340 -12.517596 1.792067 0.000000 0.000000 0.000000 4.473602 0.424637 -5.299811 0.487684 -0.127141 -4.741939 -0.408483 7.363275 12.053092 2.236738 0.538401 -17.493730 0.000000 0.000000 0.000000 -4.261794 -15.333154 5.065004 3.002580 -39.974172 -3.678265 124.853292 -31.682243 -55.479020 0.000000 0.000000 0.000000 26.893641 9.142652 5.677194 54.427519 0.518690 -6.319123 -2.719742 29.533664 0.758593 0.000000 0.000000 0.000000 
-0.013570 0.931493 0.003099 -2.384703 -2.798573 -1.123591 7.397533 -0.092253 -2.740772 -6.460636 1.020859 9.777086 7.355122 15.508324 2.432350 0.000000 0.000000 0.000000 6.184011 -0.524520 2.490462 2.819827 -0.240886 2.598752 -5.172887 -13.195661 2.034103 0.000000 0.000000 0.000000 4.060700 0.431648 -5.644462 0.639594 -0.184503 -4.817513 -0.370663 7.057398 12.460625 2.278067 0.528974 -17.717993 0.000000 0.000000 0.000000 -4.064620 -15.788202 5.241758 2.094428 -39.560723 -3.396418 124.919668 -31.172291 -54.772958 0.000000 0.000000 0.000000 27.238838 9.600678 6.010807 54.551464 0.434690 -6.414215 -3.662213 29.778766 0.544037 0.000000 0.000000 0.000000 
-0.014136 0.931359 0.002991 -2.494700 -2.729112 -1.067925 7.623498 -0.094356 -2.945402 -6.605431 1.058210 10.099933 7.521477 15.825050 2.476874 0.000000 0.000000 0.000000 6.284595 -0.548644 2.615134 2.987113 -0.266882 2.281104 -5.291705 -13.460396 2.005631 0.000000 0.000000 0.000000 4.083600 0.450669 -5.878459 0.522382 -0.135478 -4.715192 -0.025018 6.837442 12.452762 2.227241 0.540769 -17.814467 0.000000 0.000000 0.000000 -4.413475 -15.724547 5.243707 1.037557 -39.783800 -3.122723 124.923833 -31.556026 -55.222375 0.000000 0.000000 0.000000 27.311219 9.736382 6.018977 54.728333 0.143474 -6.538595 -3.863553 30.126936 0.495178 0.000000 0.000000 0.000000 
-0.014710 0.931316 0.002966 -2.624942 -2.351212 -0.925478 7.990436 -0.100939 -3.184617 -6.583728 1.048238 10.357696 7.096262 14.968470 2.064410 0.000000 0.000000 0.000000 6.248802 -0.518181 2.420252 3.329585 -0.310794 2.311911 -5.146786 -13.115804 1.860519 0.000000 0.000000 0.000000 4.222679 0.487072 -6.292602 0.520311 -0.124576 -4.881422 0.099994 6.756376 12.673118 2.196472 0.568367 -17.774029 0.000000 0.000000 0.000000 -4.469880 -15.769948 5.253146 -0.279634 -40.483245 -2.854496 124.637385 -32.098208 -55.794838 0.000000 0.000000 0.000000 27.291570 9.698828 6.049158 54.972883 0.256185 -6.540017 -3.436023 29.630813 0.591387 0.000000 0.000000 0.000000 
-0.015237 0.931576 0.002944 -2.410469 -1.891079 -0.957689 7.610124 -0.118005 -3.157032 -6.166760 0.941962 10.180417 6.530739 13.878442 2.095042 0.000000 0.000000 0.000000 6.245577 -0.522338 2.463058 2.837399 -0.254326 2.340963 -5.058695 -12.902967 1.748999 0.000000 0.000000 0.000000 4.130509 0.495121 -6.494704 0.489548 -0.096857 -5.151701 -0.157055 6.895789 13.017727 1.937004 0.772651 -17.695766 0.000000 0.000000 0.000000 -4.366876 -15.820048 5.233608 -2.044242 -41.026626 -2.458272 124.465555 -32.791121 -56.863677 0.000000 0.000000 0.000000 27.117370 9.209295 5.902000 55.668918 0.591637 -6.525982 -2.983509 28.930245 0.710533 0.000000 0.000000 0.000000 
